<?xml version="1.0" standalone="no"?>
<!DOCTYPE svg PUBLIC "-//W3C//DTD SVG 1.1//EN" "http://www.w3.org/Graphics/SVG/1.1/DTD/svg11.dtd" >
<svg xmlns="http://www.w3.org/2000/svg">
<metadata></metadata>
<defs>
<font id="NumbersIndiciaMedium" horiz-adv-x="1024" >
<font-face units-per-em="2048" ascent="1638" descent="-410" />
<missing-glyph horiz-adv-x="1161" />
<glyph horiz-adv-x="0" />
<glyph horiz-adv-x="2048" />
<glyph d="M0 0v2v-2z" />
<glyph d="M0 0v2v-2z" />
<glyph d="M0 0v2v-2z" />
<glyph d="M0 0v2v-2z" />
<glyph d="M0 0v2v-2z" />
<glyph d="M0 0v2v-2z" />
<glyph unicode="&#x9;" d="M0 0v2v-2z" />
<glyph unicode="&#xa;" d="M0 0v2v-2z" />
<glyph d="M0 0v2v-2z" />
<glyph d="M0 0v2v-2z" />
<glyph unicode="&#xd;" horiz-adv-x="1161" />
<glyph d="M0 0v2v-2z" />
<glyph d="M0 0v2v-2z" />
<glyph d="M0 0v2v-2z" />
<glyph d="M0 0v2v-2z" />
<glyph d="M0 0v2v-2z" />
<glyph d="M0 0v2v-2z" />
<glyph d="M0 0v2v-2z" />
<glyph d="M0 0v2v-2z" />
<glyph d="M0 0v2v-2z" />
<glyph d="M0 0v2v-2z" />
<glyph d="M0 0v2v-2z" />
<glyph d="M0 0v2v-2z" />
<glyph d="M0 0v2v-2z" />
<glyph d="M0 0v2v-2z" />
<glyph horiz-adv-x="1161" d="M0 0v2v-2z" />
<glyph horiz-adv-x="1161" d="M0 0v2v-2z" />
<glyph d="M0 0v2v-2z" />
<glyph d="M0 0v2v-2z" />
<glyph unicode=" " horiz-adv-x="1161" d="M0 0v2v-2z" />
<glyph unicode="!" d="M0 0v2v-2z" />
<glyph unicode="&#x22;" horiz-adv-x="1161" d="M182 788l6 164v156q0 55 -3 104.5t-1 92.5q18 119 129 118q45 0 82 -24q37 -27 41 -82q0 -20 -8 -55t-27 -88l-51 -154l-74 -234q-12 -35 -47 -34q-47 0 -47 36v3v-3zM670 1300q18 123 131 123q23 0 44 -8t42 -22q37 -29 41 -86q2 -23 -9.5 -58t-29.5 -88l-55 -147 l-68 -223q-8 -37 -41 -39q-43 -4 -53 49l8 155l-2 152q0 53 -5 101t-3 91z" />
<glyph unicode="#" horiz-adv-x="1161" d="M18 481q-2 45 27 51l86 -4l139 -2l86 344l-204 -6q-31 0 -31 41q0 72 29 70l233 -6l4 24l51 221l35 168q10 23 41 23q78 -2 68 -41l-45 -168l-62 -227h156h186l6 24l54 228l34 168q2 12 35 16q76 0 74 -29l-45 -172l-64 -233l203 6q25 2 29 -66q0 -47 -33 -47l-84 2 l-137 4l-84 -344l201 6q35 -6 34 -53q0 -68 -26 -59l-86 4l-150 4l-8 -37l-51 -217l-37 -164q0 -18 -27 -18q-80 -2 -82 31l50 174l61 229v2h-156l-186 -2l-8 -35l-49 -209l-35 -159q-8 -31 -43 -31q-72 0 -70 33l49 172l62 227h-199q-27 -8 -31 57zM369 524l159 -4l181 4 l86 348l-164 2v3v-3l-176 -2z" />
<glyph unicode="$" horiz-adv-x="1161" d="M141 367q0 53 31 100q31 45 98 49q119 -16 125 -108q-4 -51 -33 -78q-31 -29 -34 -47q6 -100 200 -113l2 270v168q-66 27 -124 60.5t-111 74.5q-111 84 -113 234q-2 98 72 201q74 100 272 129l-4 170q2 27 68 26q43 0 43 -26l-6 -168q154 -12 247 -95q94 -84 97 -186 q0 -55 -31 -100q-31 -47 -98 -49q-119 12 -125 106q2 49 33 80q33 29 34 47q-8 90 -159 109l-2 -269v-164q66 -29 126 -62.5t113 -76.5q111 -84 117 -239q4 -104 -80 -201q-78 -100 -272 -125l6 -162q-2 -33 -66 -33q-45 0 -47 33l6 158q-88 4 -157.5 26.5t-122.5 65.5 q-100 82 -105 195zM371 1016q12 -119 159 -187v205v2v-2l-2 178q-156 -37 -157 -196zM623 369l2 -193q160 25 166 195q-16 127 -168 190v-192z" />
<glyph unicode="%" horiz-adv-x="1161" d="M10 1110q0 115 74 213q76 94 207 100q131 -6 205 -100q75 -100 75 -213q0 -111 -75 -211q-74 -92 -205 -98q-133 6 -207 98q-74 94 -74 211zM41 4l10 27l125 170l162 227l412 596l141 211l98 164q18 29 53 24q68 -6 72 -32l-8 -23l-125 -174l-168 -231l-410 -594 l-143 -217l-98 -162q-14 -23 -47 -23q-66 6 -74 37zM164 1110q0 -127 41 -172q37 -47 86 -41q47 -6 88 41q35 41 39 172q-4 129 -39 174q-39 41 -88 41q-51 0 -86 -41q-41 -47 -41 -174zM582 281q0 111 75 208q39 47 89.5 74t115.5 27q66 0 117 -26.5t88 -74.5 q37 -47 57.5 -99t20.5 -109q0 -59 -20.5 -111.5t-57.5 -99.5q-74 -96 -205 -103q-127 6 -205 103q-75 98 -75 211zM735 281q2 -127 41 -172q37 -45 86 -46q47 0 86 46q41 45 41 172t-41 174q-39 41 -86 41q-51 0 -86 -41q-37 -43 -41 -174v2v-2z" />
<glyph unicode="&#x26;" d="M0 0v2v-2z" />
<glyph unicode="'" horiz-adv-x="581" d="M176 791l8 161v156q0 55 -3 104.5t-1 92.5q18 119 129 118q47 0 82 -26q37 -27 41 -84q2 -23 -8 -57.5t-29 -86.5l-53 -155l-70 -228q-6 -35 -43 -34q-45 0 -53 39v2v-2z" />
<glyph unicode="(" horiz-adv-x="1161" d="M266 692q0 186 43 321.5t117 227.5q76 92 146.5 151.5t138.5 90.5q35 16 74.5 29.5t86.5 21.5l138 22q31 -6 34 -43q4 -39 -51 -38q-41 -6 -88 -21.5t-100 -46.5q-80 -47 -135.5 -115.5t-89.5 -158.5q-35 -90 -52.5 -189.5t-15.5 -214.5v2v-2q-2 -119 15.5 -227.5 t52.5 -208.5t90 -177t135 -124q53 -33 101 -46.5t89 -15.5q55 -4 49 -41q-4 -47 -36 -49l-138 23q-47 6 -86 21.5t-73 31.5q-133 57 -281 223q-76 88 -120 224.5t-44 328.5z" />
<glyph unicode=")" horiz-adv-x="1161" d="M117 -123q-4 43 51 49q39 4 85 18.5t97 43.5q82 47 140.5 115.5t93.5 158.5q70 176 69 393v2v-2q0 248 -69 449q-72 201 -228 299q-39 23 -86 40t-106 27q-57 8 -47 52q2 33 33 32l139 -20q47 -6 86 -21.5t76 -31.5q66 -29 135 -83.5t145 -142.5q78 -86 122 -220t44 -320 q0 -193 -45 -333t-121 -232t-145.5 -148.5t-134.5 -85.5q-37 -16 -76 -31.5t-86 -21.5l-142 -21q-31 2 -30 35z" />
<glyph unicode="*" horiz-adv-x="1161" d="M201 764q-43 84 28 135l93 23q63 16 114 28.5t92 32.5q-76 43 -206 64q-29 -2 -93 20q-72 55 -28 139q51 76 131 39l65 -71q43 -47 80 -85t78 -63q-4 94 -51 211q-20 35 -27 92q12 88 103 94q94 -6 102 -94q-6 -63 -27 -92q-47 -123 -53 -211q80 49 160 148 q10 18 26.5 36.5t38.5 34.5q82 37 138 -39q41 -86 -35 -139q-59 -23 -92 -20v2v-2q-131 -23 -205 -64q74 -39 207 -61q35 2 92 -23q74 -51 33 -137q-55 -76 -136 -39q-23 16 -39 34.5t-26 37.5q-82 102 -162 147q2 -84 53 -213q20 -27 27 -90q-8 -88 -102 -94q-90 6 -103 94 q6 59 27 90q47 121 51 211q-37 -23 -75 -60.5t-83 -84.5l-65 -72q-78 -37 -131 41z" />
<glyph unicode="+" horiz-adv-x="1161" d="M104 696q-6 88 29 78l166 -8l221 -4l-4 237l-8 154q14 31 78 31q80 0 71 -33l-8 -190l-2 -199l387 12q37 -8 33 -61q-8 -88 -45 -78l-145 4l-230 2l4 -221l6 -168q-8 -33 -71 -33v2v-2q-92 0 -76 35l4 154l4 231h-172l-217 -6q-27 -2 -25 63z" />
<glyph unicode="," horiz-adv-x="581" d="M121 -303q-6 23 37 47q51 31 106 94q53 61 60 137q4 35 -29 41l-51 -4q-61 4 -88 41q-27 39 -27 86v2v-2h-2q0 55 41 107q41 51 119 51q82 0 131 -68q47 -63 47 -141q-4 -96 -49 -203q-39 -88 -109 -170q-66 -78 -108 -84q-66 12 -78 66z" />
<glyph unicode="-" horiz-adv-x="1161" d="M205 721q-4 86 24 90l289 -10v2v-2l225 4l177 6q39 2 38 -57q0 -84 -28 -90l-289 8l-233 -2l-166 -6q-37 2 -37 57z" />
<glyph unicode="." horiz-adv-x="581" d="M133 131q0 63 43 113q43 53 115 53t115 -53q41 -47 45 -113v2v-2q-4 -61 -45 -108q-41 -49 -115 -56q-76 6 -115 56q-43 49 -43 108z" />
<glyph unicode="/" horiz-adv-x="1161" d="M78 -195l94 187l127 248l483 972v2v-2l111 232l80 174q6 16 31 20q82 -2 73 -51l-94 -182l-125 -248l-481 -971l-127 -260l-62 -147q-12 -23 -49 -19q-74 2 -61 45z" />
<glyph unicode="0" horiz-adv-x="1161" d="M119 696q0 266 125 492q127 221 336 233q215 -12 338 -233q124 -224 126 -492q-2 -272 -126 -491q-121 -221 -338 -238q-211 14 -336 238q-125 221 -125 491zM379 696q0 -395 59 -518q59 -121 142 -108q84 -12 145 108q29 59 43 189.5t16 328.5v2v-2q-4 399 -59 518 q-59 117 -145 109q-84 10 -142 -109q-59 -125 -59 -518z" />
<glyph unicode="1" horiz-adv-x="1161" d="M227 1071q-45 96 39 100q160 6 242 64q45 16 59 137q10 57 29 74q20 18 86 18q104 0 104 -88l-26 -139q-10 -53 -18.5 -111.5t-8.5 -121.5v-179v-338v-200l8 -135q10 -37 23 -46l90 -10l123 6q35 -4 33 -49v2v-2q0 -61 -27 -61l-141 6l-219 2l-224 -2l-139 -6 q-29 0 -29 61q0 47 35 49l121 -6l90 10q12 8 23 46q8 31 8 135v196v355l4 180l10 115l-129 -80q-31 -20 -57.5 -28.5t-44.5 -10.5q-45 14 -64 57z" />
<glyph unicode="2" horiz-adv-x="1161" d="M147 41q6 111 45 205t111 168l291 295q147 147 156 356q6 94 -50 172q-53 74 -170 76q-59 0 -100 -35t-41 -72q6 -37 47 -73q41 -41 47 -105q0 -70 -37 -119q-39 -49 -112 -49q-70 0 -113 60q-41 57 -41 122q0 166 111 273q109 109 289 106q121 -2 203.5 -38.5 t127.5 -102.5q92 -133 86 -244q-6 -174 -129 -280q-63 -53 -133.5 -107.5t-150.5 -107.5q-158 -109 -271 -265q70 25 129 23l138 -27q63 -20 151 -24q117 8 148 108q29 100 34 154q18 43 62 35q43 -10 43 -45v2v-2q-31 -250 -117 -389q-82 -139 -207 -144q-152 18 -241 129 q-96 113 -142 127q-43 0 -53 -41q-4 -20 -5 -42.5t-3 -51.5l-4 -86q-6 -33 -49 -37q-51 0 -50 76z" />
<glyph unicode="3" horiz-adv-x="1161" d="M164 334q0 68 43 123q43 59 115 59t110 -49q37 -49 37 -117q-2 -66 -47 -106q-41 -37 -47 -74q0 -84 174 -100q240 6 233 309q-4 129 -67 209q-72 82 -209 86l-135 -17q-29 4 -29 68q0 41 37 45l133 -14q272 6 270 321q0 51 -13 94t-44 78q-55 70 -176 74 q-133 -12 -146 -100q6 -35 52 -74q41 -41 47 -107q0 -68 -37 -116q-20 -23 -48 -37.5t-65 -11.5q-37 0 -65.5 15t-48.5 42q-41 57 -41 125q0 166 108 264q55 47 127 73.5t164 24.5q240 -4 332 -133q92 -127 86 -235q-12 -252 -332 -332q92 -23 157.5 -55.5t102.5 -79.5 q74 -94 72 -226v2v-2q-4 -162 -117 -272q-57 -57 -135 -88t-182 -33q-92 0 -166 26.5t-131 76.5q-117 100 -119 264z" />
<glyph unicode="4" horiz-adv-x="1161" d="M100 465q-14 18 2 45q59 61 118 141t116 178q59 100 89 240.5t36 327.5q6 35 82 47l149 14q76 -2 82 -22q-2 -82 -86 -248q-84 -170 -203 -342q-59 -90 -117.5 -163t-117.5 -132l160 -2l174 -2v233q8 68 82 154q55 61 96 76q49 16 49 -37v-426l213 8q35 -2 35 -45 q-4 -68 -31 -66l-217 9v-166q0 -51 2 -85t6 -50q10 -37 23 -46l90 -10l121 6q37 -4 34 -49v2v-2q0 -61 -26 -61l-141 6l-222 2l-221 -2l-141 -6q-25 0 -27 61q0 47 35 49l121 -6l90 10q14 8 20 46q4 16 6.5 50t2.5 85v166l-279 -2l-176 -7q-16 0 -29 21z" />
<glyph unicode="5" horiz-adv-x="1161" d="M156 270q0 70 43 123q39 53 112 60q145 -18 152 -164q-6 -66 -49 -94q-41 -29 -47 -66q-10 -57 155 -59q117 -2 179.5 91t70.5 279q6 131 -29 254q-35 119 -168 125q-109 -4 -151 -76q-43 -72 -41 -153q0 -29 -57 -29q-43 0 -43 37v193l-11 264l-6 190q-6 197 117 191 q63 -4 115.5 -31t89.5 -82q68 -96 149 -96q29 -2 51.5 9t40.5 32q18 23 39 52.5t41 70.5q20 25 62 12q39 -16 43 -37v2v-2q-4 -78 -119 -170q-59 -47 -143 -70.5t-195 -27.5l-129 8l-45 -4q-10 -8 -10 -55l-4 -144v-119q29 59 88 92t153 35q90 4 161 -28.5t124 -91.5 t82 -135t27 -173q0 -197 -134 -354q-66 -76 -149.5 -118t-188.5 -44q-88 -2 -155.5 23.5t-118.5 68.5q-98 88 -102 211z" />
<glyph unicode="6" horiz-adv-x="1161" d="M195 659q0 223 45 375t122 234q78 84 154 120.5t148 32.5q66 -4 120 -23.5t97 -62.5q41 -41 64.5 -93t23.5 -112q0 -168 -150 -174q-66 -4 -98.5 27t-36.5 88q8 68 55 92q51 27 60 60q0 88 -131 100q-84 -6 -138 -115q-51 -111 -73 -243q-25 -135 -25 -217 q88 119 227 116q176 -6 279 -133q100 -123 104 -295q-4 -203 -120 -332q-59 -66 -133 -99.5t-166 -37.5q-150 -4 -285 150q-68 78 -106.5 212t-36.5 330zM424 629q-12 -559 215 -570q66 -2 115 78q45 80 49 277v2v-2q2 125 -31 233q-33 106 -160 117q-102 -4 -188 -135z" />
<glyph unicode="7" horiz-adv-x="1161" d="M211 1360q4 49 57 43q53 -10 60 -39l-13 -90q-4 -31 -7 -65.5t1 -71.5q49 51 86 166q39 113 178 124q137 -12 187 -120q49 -109 135 -123q80 8 74 82q-10 80 -4 127q12 41 55 32q41 -6 47 -43v2v-2q-16 -268 -123 -448q-111 -180 -160 -389l-39 -387q-18 -180 -165 -193 q-152 18 -144 191q2 96 72 252q35 78 74 143t82 121q41 53 80.5 111.5t78.5 123.5q80 131 99 195q-72 -37 -140 -35l-151 18l-160 23q-109 -16 -143 -102l-11 -95l-6 -143q-6 -39 -53 -39q-47 2 -45 33l4 168l-4 258z" />
<glyph unicode="8" horiz-adv-x="1161" d="M178 326q4 131 71.5 223t194.5 149q-139 96 -180 195q-39 90 -35 166q10 176 123 268q117 96 260 94q188 -2 289 -106q100 -102 100 -221q-10 -205 -221 -328q125 -74 190.5 -169t69.5 -216q2 -86 -31.5 -158.5t-93.5 -132.5q-59 -59 -136 -91t-173 -32q-106 2 -186 34 t-133 87q-55 55 -84 114.5t-25 123.5zM367 350q0 -121 63 -198q63 -78 182 -82q197 16 213 229q6 74 -55 154q-31 39 -93.5 89t-160.5 109q-154 -100 -149 -301zM436 1147q-10 -57 33 -127q37 -70 238 -207q123 123 120 264q0 236 -200 246q-96 -2 -144 -59 q-47 -59 -47 -117v2v-2z" />
<glyph unicode="9" horiz-adv-x="1161" d="M172 958q0 98 33 181.5t94 148.5q123 133 303 133q174 2 295 -178q125 -180 127 -514q-16 -444 -176 -604q-156 -162 -285 -158q-78 4 -140.5 25.5t-109.5 62.5q-47 43 -71.5 94.5t-24.5 112.5q0 82 38 127t114 49q63 4 95 -28.5t36 -92.5q-6 -61 -56 -90 q-51 -25 -57 -57q12 -84 154 -100q92 6 147 114q29 55 48.5 115.5t29.5 128.5q12 68 16 122t4 95q-96 -121 -237 -117q-176 2 -277 131q-100 129 -100 299zM414 979q-4 -129 26 -236q31 -109 156 -114q104 2 197 135v2v-2q0 279 -45 420q-45 145 -164 145q-68 2 -117 -76 q-51 -78 -53 -274z" />
<glyph unicode=":" horiz-adv-x="581" d="M135 131q4 63 45 111q41 49 117 55q72 -6 113 -55q43 -49 43 -111q0 -61 -43 -111q-43 -53 -113 -53q-74 0 -117 53q-41 47 -45 111v2v-2zM135 805q6 76 51 117q47 47 107 47q63 0 110 -47q49 -45 50 -115q0 -74 -52 -121q-49 -45 -106 -45v-2q-61 0 -109 47 q-45 43 -51 119z" />
<glyph unicode=";" horiz-adv-x="581" d="M127 137q0 61 39 107q41 51 121 51q84 0 127 -59q37 -49 41 -134q0 -51 -8.5 -104t-30.5 -111l-101 -170q-57 -80 -102 -86q-25 4 -53 21q-31 18 -31 35q-6 20 31 49l108 106q47 61 54 138q4 33 -29 34h-47q-57 0 -90 39q-29 37 -29 84v2v-2zM133 807q0 57 45 108 q47 53 119 54q68 0 111 -56q43 -53 43 -112t-43 -109q-39 -47 -115 -53q-72 6 -115 55q-45 52 -45 113z" />
<glyph unicode="&#x3c;" horiz-adv-x="1161" d="M92 707q4 49 35 65q129 61 249 122.5t230 121.5l293 153q53 16 66 -45q6 -76 -21 -82l-156 -77l-249 -129l-187 -95q-33 -16 -55.5 -26t-38.5 -17l78 -34v2v-2l190 -97q66 -33 129.5 -65.5t126.5 -63.5l162 -80q39 -10 21 -86q-16 -59 -66 -49q-41 20 -119 64.5 t-200 105.5l-453 232q-39 27 -35 82z" />
<glyph unicode="=" horiz-adv-x="1161" d="M113 481q0 88 41 88l186 -10l231 -2l265 6l184 6q33 0 37 -84q0 -57 -37 -65l-135 4l-199 6l-121 2l-198 -6l-207 -6q-41 6 -47 61v2v-2zM113 911q0 57 39 68l165 -6l187 -6l319 6l201 6q35 -7 31 -64q2 -86 -29 -86l-166 11l-225 4l-287 -8l-209 -7q-31 0 -26 82z" />
<glyph unicode="&#x3e;" horiz-adv-x="1161" d="M121 272q-29 68 16 82l156 78l246 125l186 94v2v-2l98 47l-75 31l-191 98q-66 35 -129 67t-129 64l-162 80q-35 6 -16 86q12 57 61 45l183 -94l297 -162q82 -45 155.5 -78.5t138.5 -62.5q37 -27 33 -74q0 -53 -35 -73q-129 -61 -246.5 -122t-228.5 -120l-289 -160 q-45 -16 -69 49z" />
<glyph unicode="?" d="M0 0v2v-2z" />
<glyph unicode="@" d="M0 0v2v-2z" />
<glyph unicode="A" horiz-adv-x="872" d="M131 1251q-6 17 -6 29q0 31 35 41l110 2l68 2q78 12 92 70q16 37 31 45l53 8h5q71 0 77 -53l-29 -144q-10 -59 -18 -134t-8 -165v-82v-96q0 -70 10 -84l18 -24l101 -2l110 6q23 -2 23 -35v2v-2q0 -53 -19 -66l-141 11l-188 6l-176 -6l-123 -11q-20 14 -21 66q0 31 23 35 l96 -6h84q16 6 27 24q14 20 14 86v76v84l8 182l19 156q-158 -62 -222 -62h-10q-27 -2 -43 41z" />
<glyph unicode="B" horiz-adv-x="872" d="M117 610q0 106 69 176l156 117q45 35 87 62.5t77 60.5q74 63 74 145v10q0 29 -10 55q-12 30 -31 52q-45 49 -136 49q-41 0 -90 -26q-43 -27 -45 -51q2 -23 37 -50q35 -29 41 -73q-4 -90 -104 -97q-49 0 -82 37q-31 41 -31 76q4 113 92 188q45 41 99 63q49 20 107 19h11 q78 0 136.5 -23.5t95.5 -64.5q73 -81 73 -153v-6q0 -115 -88 -175q-41 -29 -90 -54t-102 -48q-123 -47 -215 -133l82 12l231 -30q84 6 103 51q20 43 24 78q10 25 33 22q33 0 37 -29v2v-2q-47 -307 -201 -307h-12q-96 8 -174 72q-78 59 -119 70h-3q-48 0 -48 -64q1 -10 1 -19 q0 -56 -44 -61q-43 4 -41 49z" />
<glyph unicode="C" horiz-adv-x="872" d="M121 776q-2 92 100 105q94 -12 94 -80q-2 -43 -28 -66q-29 -18 -31 -39q12 -57 152 -69q86 4 132 49t48 137v9q0 37 -16 65q-18 31 -46 49q-28 16 -62 26q-24 8 -52 8q-10 0 -21 -1l-110 -13q-20 6 -21 48q0 31 25 36l110 -14q74 0 125 41q53 47 53 122v5 q-4 158 -166 158h-12l-88 -21q-41 -16 -45 -51q2 -20 33 -39q25 -16 29 -59q0 -72 -86 -78q-55 4 -78 35q-23 33 -23 65q6 104 94 162q91 55 188 55h7q162 0 236 -73q69 -66 69 -135v-9q-2 -86 -69 -137q-66 -47 -146 -61q104 -18 168 -62q68 -47 68 -137v2v-2 q-2 -106 -97 -174q-90 -68 -227 -72q-127 0 -215 55q-92 53 -92 160z" />
<glyph unicode="D" horiz-adv-x="872" d="M78 868l170 215q51 66 74.5 147t27.5 177q12 29 105 39q27 3 47 3q48 0 55 -17q-8 -84 -135 -250q-125 -166 -244 -287h121l133 -2v127q2 41 53 98q35 37 66 47q33 12 33 -20v-252l159 4q20 0 21 -29q0 -45 -19 -51l-161 6v-53l4 -82q4 -16 16 -29l74 -2l92 9 q25 2 25 -31v2v-2q0 -51 -19 -64l-108 9l-160 4l-172 -4l-121 -9q-14 12 -14 64q-4 31 20 31l105 -9q35 -2 56 -3t30 3q14 10 16 31l4 82v53l-201 -2l-135 -4q-22 4 -22 28q0 10 4 23z" />
<glyph unicode="E" horiz-adv-x="872" d="M106 739v7q0 91 95 102q98 -10 98 -88q-4 -39 -25 -51q-23 -14 -26 -37q10 -41 117 -43h5q77 0 132 61q57 63 59 182v12q0 165 -166 183q-143 -8 -153 -115q2 -18 -33 -18q-33 0 -33 24v183l-8 182q-1 9 -1 18q1 46 19 71q20 28 55 28h5q92 -4 137 -51q29 -29 58.5 -44.5 t64.5 -17.5q63 0 112 103l48 4q31 -13 39 -27q-2 -49 -91 -104q-45 -29 -102 -47q-51 -16 -114 -15h-15l-51 2l-47 4q-10 3 -17 3q-23 0 -22 -30v-8l-2 -77v-68q72 69 169 69q10 0 21 -1q115 0 205 -68q43 -35 67 -82q22 -43 21 -97v-9q0 -70 -27.5 -125.5t-78.5 -100.5 q-106 -92 -238 -94q-59 0 -107.5 14.5t-87.5 38.5q-82 51 -82 127z" />
<glyph unicode="F" horiz-adv-x="872" d="M115 969q0 133 36.5 224t98.5 138q60 49 114 71q49 20 93 19h8q47 -2 89 -13t77 -38q66 -51 71 -131q-6 -100 -98 -100q-72 0 -78 59q4 43 29 53q29 10 31 29q-6 61 -103 74q-127 -12 -170 -137q-21 -63 -31 -118q-8 -40 -7 -77q0 -14 1 -27q79 90 178 90h13 q57 -2 105.5 -18t86.5 -51q76 -67 80 -178q-6 -125 -94 -199q-86 -74 -209 -80q-47 0 -99 19.5t-106 62.5q-55 45 -87 126q-30 76 -29 188v14zM281 922q2 -158 51 -226q45 -63 105 -63h5q53 0 93 41q39 43 43 153v2v-2q0 78 -31 134q-35 53 -115 53q-78 0 -151 -92z" />
<glyph unicode="G" horiz-adv-x="872" d="M135 1386q6 33 39 27q35 -4 39 -22q-7 -21 -7 -73q0 -20 1 -46q57 35 88 96q29 63 119 70q92 -8 139 -68q43 -59 100 -65q39 2 39 36v66q12 31 43 25q31 -4 33 -31v2v-2q-2 -59 -11 -108.5t-30 -88.5q-35 -74 -86 -137q-78 -100 -104 -170q-29 -80 -35 -174 q-2 -76 -25 -125q-18 -47 -82 -47q-92 8 -92 114v9v11q0 121 131 278l146 145q74 74 92 135l-62 -16l-61 -6l-205 26q-106 -8 -131 -65l-4 -60l-4 -94q-6 -25 -37 -24q-31 2 -31 20l2 180z" />
<glyph unicode="H" horiz-adv-x="872" d="M106 778q0 76 54 123l119 80q-78 43 -112 93q-30 45 -30 96v12q10 115 92 176q88 63 182 63h9q68 0 119 -17.5t90 -49.5q76 -66 78 -146q-4 -76 -45 -116q-39 -41 -99 -70q76 -35 127 -86q53 -53 53 -126v-5q0 -115 -102 -178q-47 -33 -103.5 -50.5t-121.5 -17.5 q-143 4 -226 68q-84 61 -84 151zM238 782q6 -74 59 -108q53 -35 125 -35h7q53 0 106 27q51 30 53 100v7q0 45 -47 83q-49 37 -197 94q-96 -43 -106 -168zM287 1227q-2 -51 43 -90q25 -20 66.5 -43t103.5 -45q78 45 88 153q-16 144 -160 144h-2q-139 -14 -139 -119v2v-2z" />
<glyph unicode="I" horiz-adv-x="872" d="M111 1141q2 125 94 200q88 76 209 80h13q92 0 194 -80q53 -41 85 -121q30 -75 29 -186v-14q0 -135 -36.5 -226.5t-102.5 -140.5q-122 -94 -215 -94h-8q-100 6 -164 49q-35 23 -52.5 54.5t-21.5 68.5q6 102 96 103q72 0 76 -58q0 -47 -26 -53q-27 -8 -31 -31 q4 -57 102 -63q135 12 180 137q41 123 41 213v8q-86 -92 -196 -92q-119 6 -191 72q-75 65 -75 174zM268 1151q-1 -12 -1 -23q0 -146 143 -159q84 0 159 94q-2 158 -49 223q-49 63 -112 64q-53 0 -95 -43q-41 -45 -45 -156z" />
<glyph unicode="J" horiz-adv-x="872" d="M90 993q0 94 27.5 171t81.5 136q104 121 239 121t240 -121q104 -123 106 -307q-2 -182 -106 -307q-104 -127 -240 -127q-68 0 -127 33t-112 94q-109 127 -109 307zM266 993q0 -117 15.5 -189.5t44.5 -105.5q50 -58 99 -58q6 0 13 1q7 -1 14 -1q47 0 97 58q57 66 59 295v2 v-2q-2 229 -59 295q-47 57 -95 57q-8 0 -16 -2q-6 1 -12 1q-49 0 -100 -56q-29 -33 -44.5 -105.5t-15.5 -189.5z" />
<glyph unicode="K" horiz-adv-x="2035" d="M59 1251q-8 18 -8 32q0 29 37 38l111 2l67 2q78 12 92 70l29 45l55 8h5q71 0 77 -53l-28 -144q-12 -59 -19.5 -134t-7.5 -165v-82v-96q0 -68 8 -84l21 -24l100 -2l111 6q24 -2 20 -35q0 -55 -16 -66l-142 11l-188 6l-176 -6l-123 -11q-20 14 -21 66q0 31 23 35l96 -6h84 l27 24q4 10 8 30.5t4 55.5v76v84l10 182l19 156q-160 -62 -222 -62h-10q-27 -2 -43 41zM532 8l13 25l121 170l163 221l437 612v2v-2l145 211l105 158q9 18 39 18h6q59 -3 59 -32q0 -12 -10 -29l-121 -168l-166 -223l-434 -611l-148 -213l-102 -157q-12 -16 -37 -21 q-55 2 -70 39zM1284 18q0 55 18.5 98.5t51.5 78.5l155 116q45 35 87 62.5t77 60.5q74 63 76 146q0 68 -43 116q-43 49 -133 49q-43 0 -90 -26q-45 -25 -47 -51q2 -20 39 -50q33 -27 38 -73q-4 -90 -104 -96q-49 0 -82 36q-29 39 -29 76q0 109 93 189q43 40 96 62 q47 20 104 19h15q80 0 137 -23.5t94 -64.5q76 -78 76 -159q-2 -115 -88 -174q-82 -55 -195 -103q-121 -47 -215 -133l82 12l234 -30q80 4 102 51q20 45 22 78q10 25 33 22q37 1 37 -28q-45 -308 -202 -308h-11q-96 10 -174 72q-78 59 -119 70h-3q-48 0 -48 -64q1 -10 1 -19 q0 -56 -44 -61q-41 4 -41 49z" />
<glyph unicode="L" horiz-adv-x="2035" d="M59 1251q-8 18 -8 32q0 29 37 38l111 2l67 2q78 12 92 70l29 45l55 8h5q71 0 77 -53l-28 -144q-12 -59 -19.5 -134t-7.5 -165v-82v-96q0 -68 8 -84l21 -24l100 -2l111 6q24 -2 20 -35q0 -55 -16 -66l-142 11l-188 6l-176 -6l-123 -11q-20 14 -21 66q0 31 23 35l96 -6h84 l27 24q4 10 8 30.5t4 55.5v76v84l10 182l19 156q-160 -62 -222 -62h-10q-27 -2 -43 41zM532 8l13 25l121 170l163 221l437 612v2v-2l145 211l105 158q9 18 39 18h6q59 -3 59 -32q0 -12 -10 -29l-121 -168l-166 -223l-434 -611l-148 -213l-102 -157q-12 -16 -37 -21 q-55 2 -70 39zM1313 182q-2 92 100 105q96 -12 94 -80q0 -45 -28 -66q-29 -18 -31 -39q12 -57 151 -69q86 4 132.5 49t48.5 137v9q0 37 -16 65q-18 31 -46 47t-62 28q-25 9 -53 8q-10 0 -20 -1l-110 -13q-20 2 -21 46q0 33 25 38l110 -14q78 0 127 41q51 45 51 121v6 q-4 157 -159 157q-9 0 -19 -1l-88 -19q-43 -20 -45 -51q2 -18 33 -39q27 -16 29 -61q0 -70 -86 -76q-55 4 -78 35q-23 29 -23 65q6 106 96 162q45 29 93 43q42 12 87 13q7 0 13 -1q162 -2 235 -75q70 -70 70 -138q0 -88 -70 -141q-33 -23 -68.5 -39t-76.5 -24 q102 -16 168 -60q68 -47 68 -137q-2 -106 -97 -174q-90 -68 -227 -72q-127 0 -215 56q-92 53 -92 159z" />
<glyph unicode="M" horiz-adv-x="2035" d="M117 610q0 106 69 176l156 117q45 35 87 62.5t77 60.5q74 63 74 145v10q0 29 -10 55q-12 30 -31 52q-45 49 -136 49q-41 0 -90 -26q-43 -27 -45 -51q2 -23 37 -50q35 -29 41 -73q-4 -90 -104 -97q-49 0 -82 37q-31 41 -31 76q4 113 92 188q45 41 99 63q49 20 107 19h11 q78 0 136.5 -23.5t95.5 -64.5q73 -81 73 -153v-6q0 -115 -88 -175q-41 -29 -90 -54t-102 -48q-123 -47 -215 -133l82 12l231 -30q84 6 103 51q20 43 24 78q10 25 33 22q33 0 37 -29q-47 -307 -201 -307h-12q-96 8 -174 72q-78 59 -119 70h-3q-48 0 -48 -64q1 -10 1 -19 q0 -56 -44 -61q-43 4 -41 49zM502 8l10 25l125 170l164 221l436 612v2v-2l145 211l105 158q5 18 35 18h6q60 -3 60 -33q0 -12 -9 -28l-123 -168l-164 -223l-436 -611l-145 -213l-105 -157q-14 -18 -35 -21q-55 4 -69 39zM1278 184q0 94 102 105q94 -12 95 -80 q-2 -45 -29 -66q-25 -18 -31 -39q12 -57 154 -69q168 6 180 186q-6 90 -63 123q-29 16 -64 26q-25 8 -52 8q-10 0 -20 -1l-112 -12q-14 4 -19 47q0 31 23 37l112 -15q74 0 125 41q53 47 54 127q-6 160 -167 160h-12l-86 -19q-43 -18 -47 -55q6 -23 31 -39q27 -14 33 -59 q-6 -72 -86 -78q-57 2 -78 35q-25 33 -25 61q0 54 27 98q25 42 70 70q90 58 189 58h3q84 -2 142.5 -22.5t93.5 -55.5q69 -71 69 -138v-6q-4 -92 -67 -137q-68 -47 -148 -61q53 -10 94 -24.5t74 -37.5q64 -45 70 -139q-6 -109 -96 -172q-94 -70 -230 -72q-127 0 -215 56 q-45 27 -69.5 66.5t-24.5 92.5z" />
<glyph unicode="N" horiz-adv-x="2035" d="M84 1251q-8 18 -8 32q0 29 37 38l108 2l70 2q74 12 92 70l29 45l55 8h10q67 0 72 -53l-29 -144q-12 -59 -20 -134t-8 -165v-82v-96q0 -63 10 -84l20 -24l101 -2l108 6q27 -4 23 -35q0 -53 -19 -66l-139 11l-190 6l-177 -6l-120 -11q-20 12 -21 66q0 31 23 35l96 -6h84 l24 24q14 20 15 86v76v84l10 182l18 156q-162 -62 -221 -62h-10q-27 -2 -43 41zM557 8q2 8 10 25l123 170l164 221l436 612v2v-2l146 211l104 158q9 18 37 18h6q60 -3 60 -33q0 -12 -9 -28l-123 -168l-163 -223l-437 -611l-145 -213l-104 -157q-12 -18 -33 -21q-57 2 -72 39 zM1223 276q39 41 81 95.5t89 120.5q94 135 100 323q12 29 104 39q24 2 43 2q51 0 62 -16q-8 -84 -135 -250q-66 -84 -125.5 -156t-118.5 -133h121l133 -2v129q2 41 53 98l64 47q35 12 35 -20v-254l159 4q20 2 21 -27q-4 -47 -19 -51l-161 6v-53l4 -82q6 -20 16 -28l74 -2 l92 8q23 3 23 -22q0 -4 -1 -9q0 -53 -16 -63l-109 8l-159 4l-172 -4l-121 -8q-12 8 -17 63q0 29 23 31l104 -8q35 -3 56.5 -3t29.5 3q10 8 17 30l4 82v53l-201 -2l-137 -4q-21 4 -21 26q0 10 5 25z" />
<glyph unicode="O" horiz-adv-x="2035" d="M154 772q0 96 104 109q92 -14 94 -82q-4 -47 -30 -66q-25 -16 -29 -39q8 -57 151 -69q168 6 181 186q-6 92 -64 125q-29 18 -63 28q-24 8 -50 8q-10 0 -20 -1l-115 -13q-16 6 -16 48q-4 31 20 36l115 -14q72 0 123 41q27 23 42 55q13 28 13 62v10q-6 158 -166 158h-12 l-88 -19q-43 -18 -45 -53q4 -23 29 -39q27 -14 32 -59q-6 -72 -86 -78q-57 4 -77 35q-23 31 -23 60q0 106 94 167q91 55 188 55h7q162 0 235 -73q72 -74 70 -144q-4 -90 -70 -137q-68 -47 -145 -61q102 -18 168 -64q65 -47 67 -139q-6 -109 -96 -174q-90 -66 -227 -70 q-127 0 -217 53q-92 53 -94 158zM530 8l13 25l121 170l163 221l437 612v2v-2l145 211l104 158q9 18 37 18h6q62 -3 62 -33q0 -12 -10 -28l-121 -168l-164 -223l-436 -611l-148 -213l-102 -157q-12 -16 -37 -21q-55 2 -70 39zM1198 276l170 216q51 66 74.5 146.5t27.5 176.5 q12 29 105 39q24 2 42 2q51 0 60 -16q-8 -84 -135 -250q-63 -84 -123.5 -156t-120.5 -133h121l133 -2v129q2 41 54 98l63 47q35 12 35 -20v-254l160 4q20 2 20 -27q0 -45 -18 -51l-162 6v-53l4 -82q4 -16 16 -28l74 -2l92 8q25 2 25 -31q0 -55 -19 -63l-108 8l-160 4 l-172 -4l-121 -8q-14 8 -14 63q-4 29 20 31l105 -8q35 -3 56.5 -3t29.5 3q14 10 16 30l4 82v53l-200 -2l-135 -4q-23 4 -23 28q0 10 4 23z" />
<glyph unicode="P" horiz-adv-x="2035" d="M43 1251q-6 17 -6 29q0 31 35 41l110 2l68 2q78 12 92 70l31 45l53 8h5q71 0 77 -53l-29 -144q-10 -59 -18 -134t-8 -165v-82v-96q0 -70 10 -84l18 -24l101 -2l110 6q23 -2 23 -35q0 -53 -19 -66l-141 11l-188 6l-177 -6l-122 -11q-20 14 -21 66q0 31 23 35l96 -6h84 l26 24l15 86v76v84l8 182l18 156q-158 -62 -221 -62h-10q-27 -2 -43 41zM522 8l10 25l123 170l164 221l436 612v2v-2l148 211l102 158q9 18 37 18h6q61 -3 61 -32q0 -12 -10 -29l-120 -168l-164 -223l-436 -611l-148 -213l-102 -157q-12 -16 -37 -21q-55 2 -70 39zM1337 145 q0 96 95 107q96 -8 100 -86q-4 -39 -27 -51q-23 -16 -24 -35q10 -39 114 -43h5q77 0 135 59q57 59 59 178v12q0 163 -166 181q-145 -10 -153 -113q0 -18 -35 -16q-31 -4 -31 22v185l-8 184v16q0 103 73 103h5q92 -4 137 -51q55 -59 123 -62q63 0 110 103l49 4q33 -13 37 -29 q0 -47 -90 -102q-43 -29 -101 -47q-52 -16 -115 -15h-15l-49 2l-49 4q-10 4 -17 4q-20 0 -21 -29q0 -5 1 -12l-2 -81v-68q70 67 167 67q10 0 21 -1q115 0 205 -68q90 -72 90 -186q0 -129 -109 -222q-104 -90 -237 -92q-59 0 -106.5 14.5t-88.5 38.5q-80 51 -82 125z" />
<glyph unicode="Q" horiz-adv-x="2035" d="M100 610q0 55 18.5 98.5t51.5 77.5l156 117q47 31 90 61.5t78 61.5q78 68 77 145v11q0 29 -9 54q-11 30 -32 52q-47 49 -141 49q-43 0 -90 -26q-45 -25 -47 -51q2 -20 39 -50q33 -27 39 -73q-4 -90 -105 -97q-49 0 -82 37q-28 37 -28 70v6q0 111 92 188q45 41 99 63 q49 19 109 19h11q82 0 140.5 -23.5t95.5 -64.5q73 -81 73 -153v-6q0 -113 -90 -175q-86 -57 -194 -102q-123 -47 -220 -133l82 12l240 -30q84 6 102 51q20 43 25 78q10 25 33 22q37 0 37 -29q-45 -307 -203 -307h-12q-96 8 -179 72l-120 70h-3q-48 0 -49 -64q1 -10 1 -19 q0 -56 -44 -61q-41 4 -41 49zM492 8l10 25l123 170l163 221l439 612v2v-2l143 211l107 158q5 18 35 18h6q61 -1 61 -34q0 -12 -8 -27l-125 -168l-164 -223l-436 -611l-146 -213l-104 -157q-14 -18 -35 -21q-55 2 -69 39zM1307 145q-2 96 94 107q98 -10 98 -86 q-4 -39 -24 -51q-25 -16 -27 -35q10 -41 117 -43h10q75 0 127 59q57 59 59 178v12q0 163 -166 181q-145 -10 -153 -113q4 -20 -33 -16q-33 -4 -33 22v185l-8 184q-1 10 -1 18q0 48 19 73q20 28 55 28h5q92 -4 137 -51q29 -29 58.5 -44.5t64.5 -17.5q63 0 113 103l47 4 l39 -29q-4 -47 -90 -102q-45 -29 -103 -47q-53 -15 -116 -15h-15l-49 2l-47 4q-9 3 -16 3q-25 0 -23 -40l-2 -81v-68q70 67 168 67q11 0 22 -1q117 0 203 -68q43 -35 67 -81q23 -43 23 -96v-9q0 -66 -27.5 -121.5t-78.5 -100.5q-53 -43 -111.5 -66.5t-128.5 -25.5 q-57 0 -105.5 14.5t-86.5 38.5q-82 51 -82 125z" />
<glyph unicode="R" horiz-adv-x="2035" d="M115 776q-2 92 102 105q94 -16 94 -80q-2 -45 -28 -64q-29 -18 -31 -41q12 -57 151 -69q174 6 181 186q-4 92 -62 125q-30 16 -64 26q-25 8 -51 8q-10 0 -20 -1l-113 -13q-18 6 -18 48q0 31 23 36l112 -14q72 0 125 43q53 45 53 120v5q-4 158 -166 158h-12l-88 -19 q-43 -20 -45 -53q2 -20 31 -39q27 -14 30 -59q-4 -72 -86 -78q-55 2 -77 35q-23 33 -23 65q6 104 94 162q47 29 95 44q42 13 88 13h12q162 -4 235 -75q72 -74 70 -144q0 -90 -70 -137q-63 -45 -145 -61q104 -18 168 -62q68 -47 68 -139q-2 -106 -97 -174q-90 -68 -227 -72 q-127 0 -215 55q-94 53 -94 160zM492 8l10 25l123 170l163 221l439 612v2v-2l143 211l107 158q5 18 35 18h6q61 -1 61 -34q0 -12 -8 -27l-125 -168l-164 -223l-436 -611l-146 -213l-104 -157q-14 -18 -35 -21q-55 2 -69 39zM1307 145q-2 96 94 107q98 -10 98 -86 q-4 -39 -24 -51q-25 -16 -27 -35q10 -41 117 -43h10q76 0 127 59q57 59 59 178v12q0 163 -166 181q-145 -10 -153 -113q4 -20 -33 -16q-33 -4 -33 22v185l-8 184q-1 10 -1 18q1 47 19 73q20 28 55 28h5q92 -4 137 -51q29 -29 58.5 -44.5t64.5 -17.5q63 0 113 103l47 4 l39 -29q-4 -47 -90 -102q-45 -29 -103 -47q-52 -16 -116 -15h-15l-49 2l-47 4q-9 3 -16 3q-25 0 -23 -40l-2 -81v-68q70 67 168 67q11 0 22 -1q117 0 203 -68q43 -35 67 -81q23 -43 23 -96v-9q0 -66 -27.5 -121.5t-78.5 -100.5q-53 -43 -111.5 -66.5t-128.5 -25.5 q-57 0 -105.5 14.5t-86.5 38.5q-82 51 -82 125z" />
<glyph unicode="S" horiz-adv-x="2035" d="M14 868l170 215q49 66 74 147t29 177q12 31 102 39q24 2 43 2q51 0 62 -16q-8 -84 -136 -250q-125 -166 -243 -287h121l133 -2v127q2 41 53 98l63 47q35 12 35 -20v-252l160 4q20 0 20 -29q-4 -47 -18 -51l-162 6v-53l4 -82q6 -20 17 -29l73 -2l93 9q26 4 22 -31 q0 -53 -16 -64l-109 9l-160 4l-172 -4l-120 -9q-12 10 -17 64q0 31 23 31l104 -9q35 -2 56.5 -3t29.5 3q10 8 17 31l4 82v53l-201 -2l-135 -4q-24 4 -24 27q0 10 5 24zM541 8l10 25l121 170l164 221l436 612v2v-2l145 211l105 158q9 18 39 18h6q58 -3 58 -33q0 -12 -9 -28 l-123 -168l-164 -223l-434 -611l-147 -213l-105 -157q-8 -16 -35 -21q-55 4 -67 39zM1354 149q0 92 94 103q96 -8 100 -86q-4 -37 -26 -51q-20 -14 -27 -35q14 -41 117 -43h5q79 0 132 59q55 55 61 178v12q0 163 -165 181q-145 -10 -154 -113q0 -18 -35 -16q-33 -4 -33 22 v185l-8 184v6q0 113 73 113h5q90 -2 139 -51q55 -59 121 -62q66 0 113 103l49 4q33 -13 37 -29q-4 -49 -90 -102q-44 -29 -102 -47q-52 -16 -115 -15h-15l-51 2l-47 4q-9 3 -16 3q-25 0 -23 -40v-81v-68q70 67 167 67q10 0 21 -1q115 0 205 -68q90 -72 90 -186 q0 -66 -28.5 -121.5t-79.5 -100.5q-104 -90 -238 -92q-59 0 -106 14.5t-88 38.5q-82 52 -82 129z" />
<glyph unicode="T" horiz-adv-x="2035" d="M92 1251q-8 18 -8 32q0 29 37 38l108 2l70 2q76 12 90 70q20 37 31 45l53 8h10q70 0 72 -53l-27 -144q-12 -59 -20 -134t-8 -165v-82v-96q0 -63 10 -84l20 -24l101 -2l108 6q27 -4 23 -35q0 -53 -19 -66l-139 11l-190 6l-176 -6l-121 -11q-20 12 -21 66q0 33 23 35l94 -6 h86l25 24q14 20 14 86v76v84l10 182l19 156q-162 -62 -224 -62h-10h-5q-25 0 -36 41zM563 8l10 25l123 170l164 221l436 612v2v-2l146 211l104 158q7 19 31 19q5 0 12 -1q60 -3 60 -33q0 -12 -9 -28l-122 -168l-164 -223l-436 -611l-146 -213l-104 -157q-12 -18 -33 -21 q-57 2 -72 39zM1323 377q0 133 37 223t98 139q62 49 114 71q48 20 91 19h8q49 -2 90 -13t76 -38q68 -49 74 -131q-6 -100 -99 -100q-72 0 -77 59q4 43 28 53q29 10 31 29q-6 61 -102 74q-127 -12 -170 -137q-20 -63 -30 -117q-8 -39 -8 -77q0 -14 1 -28q43 49 89 71 q42 20 90 20h9q59 -2 107.5 -18.5t87.5 -51.5q76 -67 80 -178q-6 -125 -95 -201q-90 -76 -208 -78q-49 0 -100.5 19.5t-104.5 62.5q-55 45 -87 126q-30 76 -30 188v14zM1489 330q2 -158 51 -226q42 -63 102 -63h9q53 0 92 41q39 43 43 154q0 80 -33 133q-31 53 -113 53 q-78 0 -151 -92z" />
<glyph unicode="U" horiz-adv-x="2035" d="M195 739v8q0 91 94 101q96 -10 96 -88q0 -39 -23 -51q-23 -14 -26 -37q10 -39 113 -43h5q75 0 130 61q55 59 57 182v12q0 165 -162 183q-139 -10 -149 -115q2 -18 -33 -18q-33 0 -33 24v183l-8 182q-1 9 -1 18q1 46 19 71q20 28 55 28h5q90 -4 135 -51q51 -59 119 -62 q61 0 110 103l47 4l39 -27q-2 -49 -90 -104q-43 -29 -99 -47q-50 -16 -113 -15h-15l-49 2l-47 4q-20 8 -27.5 -1t-9.5 -34l-2 -77v-68q69 69 164 69q10 0 20 -1q117 0 203 -68q90 -74 90 -188q-2 -70 -29.5 -125.5t-77.5 -100.5q-104 -92 -235 -94q-57 0 -104.5 14.5 t-86.5 38.5q-82 51 -81 127zM522 8l10 25l123 170l164 221l436 612v2v-2l148 211l102 158q9 18 37 18h6q61 -3 61 -32q0 -12 -10 -29l-120 -168l-164 -223l-436 -611l-148 -213l-102 -157q-12 -16 -37 -21q-55 2 -70 39zM1282 377q2 133 38 223t97 139t115 71q49 20 92 19h8 q47 -2 89 -13t77 -38q70 -53 72 -131q-4 -100 -98 -100q-72 0 -78 59q4 45 30 53q27 10 29 29q-6 61 -100 74q-131 -12 -170 -137q-39 -117 -39 -213v-9q43 49 90 71q43 20 91 20h9q59 -2 106.5 -18.5t88.5 -51.5q74 -65 80 -178q-6 -125 -94 -201q-90 -74 -211 -78 q-47 0 -98.5 19.5t-104.5 62.5q-55 45 -88 126q-31 76 -31 188v14zM1448 330q2 -158 51 -226q47 -63 106 -63h5q53 0 92 41t45 154q0 80 -33 133q-35 53 -115 53q-78 0 -151 -92z" />
<glyph unicode="V" horiz-adv-x="2035" d="M76 1251q-8 18 -8 32q0 29 36 38l109 2l70 2q74 12 92 70q16 35 28 45l56 8h10q67 0 72 -53l-29 -144q-12 -59 -20.5 -134t-8.5 -165v-82v-96q0 -63 11 -84l20 -24l100 -2l111 6q24 -4 20 -35q0 -53 -18 -66l-139 11l-191 6l-176 -6l-121 -11q-20 12 -20 66q0 31 22 35 l97 -6h84l24 24l15 86v76v84l10 182l18 156q-162 -62 -221 -62h-10q-27 -2 -43 41zM555 8l8 25l123 170l164 221l436 612l146 211l104 158q9 18 37 18h6q60 -3 60 -33q0 -12 -9 -28l-123 -168l-164 -223l-436 -611l-145 -213l-105 -157q-12 -18 -32 -21q-57 2 -70 39z M1323 186q0 76 53 123l117 80q-140 78 -140 185q0 8 1 16q4 55 25.5 99t66.5 77q88 63 181 63h9q129 0 207 -67q78 -66 78 -146q0 -74 -43 -116q-41 -41 -98 -70q76 -35 127 -86q53 -53 53 -126v-5q-2 -117 -102 -178q-49 -33 -104.5 -50.5t-121.5 -17.5q-143 4 -225 68 q-84 61 -84 151zM1454 190q2 -70 57 -108q27 -18 59 -26.5t68 -10.5q59 0 111 29q51 26 55 100v7q0 45 -49 83q-45 37 -194 94q-98 -45 -107 -168zM1501 635q0 -53 45 -90q43 -41 170 -88q80 47 88 153q-16 144 -156 144h-6q-141 -16 -141 -119v2v-2z" />
<glyph unicode="W" horiz-adv-x="2035" d="M137 778q0 92 103 105q96 -12 94 -80q0 -45 -31 -66q-27 -18 -29 -39q12 -57 152 -69q176 4 180 186v9q0 37 -16 65q-18 31 -45 47q-59 35 -135 35l-111 -13q-18 2 -18 46q-2 33 20 38l113 -16q78 4 127 43q51 45 51 119v6q-4 159 -159 159q-9 0 -19 -1l-88 -19 q-43 -16 -43 -53q0 -18 28 -37q27 -16 31 -61q-2 -68 -86 -78q-55 4 -78 35q-23 29 -22 67q6 106 96 162q45 29 92 43q41 12 87 13q7 0 13 -1q84 0 142.5 -20.5t93.5 -54.5q72 -72 70 -142q-4 -90 -70 -139q-66 -47 -143 -61q100 -16 165 -62q64 -47 68 -135 q-2 -106 -96 -174q-90 -68 -228 -72q-125 0 -217 55q-90 53 -92 160zM512 8l10 25l123 170l166 221l434 612l148 211l102 158q9 18 37 18h6q60 -3 60 -33q0 -12 -9 -28l-121 -168l-163 -223l-439 -611l-143 -213l-107 -157q-14 -18 -34 -21q-55 4 -70 39zM1282 186 q0 76 53 123t119 80q-140 78 -140 185q0 8 1 16q6 115 92 176q84 63 179 63h9q68 0 119 -17t90 -50q74 -66 78 -146q-4 -76 -45 -116q-37 -41 -96 -70q72 -33 125 -86t53 -126v-5q0 -59 -26.5 -103t-73.5 -75q-102 -68 -228 -68q-143 4 -225 68q-84 61 -84 151zM1413 190 q6 -74 60 -108q27 -18 57.5 -26.5t66.5 -10.5q61 0 113 29q49 28 53 100v7q0 45 -47 83q-49 37 -196 94q-94 -45 -107 -168zM1462 635v-8q0 -48 43 -82q47 -41 170 -88q78 45 88 153q-16 144 -159 144h-2q-139 -16 -140 -119v2v-2z" />
<glyph unicode="X" horiz-adv-x="2035" d="M162 739v8q0 91 94 101q96 -8 100 -88q-4 -37 -26 -51q-20 -14 -27 -37q14 -41 117 -43h5q77 0 132 61q55 57 61 182v12q0 165 -165 183q-143 -8 -154 -115q0 -18 -35 -18q-33 0 -33 24v183l-8 182v11q0 106 73 106h5q90 -2 139 -51q55 -59 121 -62q63 0 113 103l49 4 q33 -13 37 -27q-4 -51 -90 -104q-44 -29 -102 -47q-52 -16 -115 -15h-15l-51 2l-47 4q-10 3 -17 3q-23 0 -22 -30v-8l-2 -77v-68q72 69 169 69q10 0 21 -1q115 0 205 -68q43 -35 66.5 -82t23.5 -106q-2 -70 -29.5 -125.5t-78.5 -100.5q-104 -92 -238 -94q-59 0 -106 14.5 t-88 38.5q-80 51 -82 127zM498 8l10 25l125 170l164 221l436 612v2v-2l143 211l107 158q5 18 35 18h6q61 -1 61 -34q0 -12 -8 -27l-125 -168l-164 -223l-436 -611l-145 -213l-105 -157q-14 -18 -35 -21q-55 4 -69 39zM1266 186q0 74 55 123q49 45 117 80q-141 79 -141 187 q0 7 1 14q6 115 93 176q84 63 179 63h9q131 0 209 -67q74 -66 78 -146q-4 -74 -43 -116q-41 -41 -99 -70q78 -35 125 -86q55 -55 56 -131q-2 -115 -103 -178q-102 -68 -225 -68q-145 2 -227 68q-84 61 -84 151zM1399 190q2 -72 57 -108q27 -18 57.5 -26.5t67.5 -10.5 q61 0 113 29q49 26 55 100q0 53 -49 90t-197 94q-96 -47 -104 -168zM1446 635q0 -4 -1 -8q0 -48 46 -82q43 -41 170 -88q76 45 88 153q-18 144 -162 144h-2q-139 -17 -139 -119z" />
<glyph unicode="Y" horiz-adv-x="2035" d="M231 1389q6 33 39 26q33 -2 39 -22q-8 -25 -8 -119q61 35 88 96q31 63 121 70q94 -8 137 -68q47 -59 103 -65q39 2 38 36v66q12 31 43 25q29 -2 33 -31q-2 -59 -11 -108.5t-30 -88.5q-37 -76 -88 -139q-76 -96 -102 -170q-29 -80 -35 -174q-2 -39 -7 -70.5t-16 -54.5 q-18 -47 -83 -47q-47 4 -69 34.5t-24 86.5q0 63 32 135t99 158l146 145q74 74 92 135q-25 -14 -61 -16l-64 -6l-203 26q-106 -8 -131 -65l-6 -60l-4 -94q-2 -25 -35 -24q-31 2 -31 20l3 180zM430 8l10 25l123 170l164 221l436 612v2v-2l148 211l102 158q9 18 37 18h6 q61 -3 61 -32q0 -13 -10 -29l-121 -168l-163 -223l-439 -611l-143 -213l-104 -157q-12 -16 -37 -21q-55 4 -70 39zM1202 186q0 76 53 123t119 80q-140 78 -140 185q0 8 1 16q6 113 90 176q88 63 182 63h9q68 0 119 -17t89 -50q74 -66 78 -146q-4 -76 -45 -116 q-37 -41 -96 -70q72 -33 125 -86t53 -126v-5q0 -59 -26.5 -103t-73.5 -75q-102 -68 -228 -68q-143 4 -225 68q-84 61 -84 151zM1333 190q6 -74 60 -108q27 -18 57.5 -26.5t67.5 -10.5q59 0 112 29q49 28 53 100v7q0 45 -47 83q-49 37 -196 94q-94 -45 -107 -168zM1382 635 v-8q0 -48 43 -82q47 -41 170 -88q78 45 88 153q-16 144 -159 144h-2q-140 -17 -140 -119z" />
<glyph unicode="Z" d="M0 0v2v-2z" />
<glyph unicode="[" horiz-adv-x="1161" d="M330 -43l8 246l6 495l-6 490l-8 239q-6 49 14.5 76t69.5 23l135 -8l205 -11l120 4l111 7q47 -10 39 -62q4 -35 -18 -47l-105 -4l-168 6l-121 6q-43 12 -43 -69l2 -265l4 -385v2v-2l-4 -387l-2 -264q0 -80 43 -72l121 13l170 10l94 -10q27 -20 27 -49q0 -70 -47 -66 l-86 10l-121 2l-217 -8l-150 -6q-90 -6 -73 86z" />
<glyph unicode="\" horiz-adv-x="2189" d="M121 250q16 211 217 223q55 6 113 -33q55 -39 55 -123q0 -76 -27 -106l-22 -49q-6 -49 55 -47q80 0 147 219q35 111 56.5 277.5t32.5 396.5q4 82 -1.5 136t-17.5 83q-10 29 -32.5 42t-55.5 9l-203 -29q-37 12 -39 74q-2 66 52 76l208 -6l211 8q53 8 84 -43t58 -158 l59 -242l94 -317l64 -192q35 266 76 452t88 301q96 227 254 219q258 -12 268 -278q-6 -84 -55 -131q-53 -49 -115 -47q-145 4 -158 153q6 84 45 99q37 12 45 22q0 53 -71 59q-80 -8 -142 -192q-66 -188 -108 -428q-23 -123 -39.5 -229.5t-26.5 -204.5l-22 -213 q-2 -31 -76 -41q-70 -6 -84 33l-51 210l-107 404l-104 412q-14 -571 -133 -832q-119 -258 -305 -254q-127 4 -205 78q-82 74 -82 209zM1413 43q2 39 31 43l104 -4l156 4l246 12q26 -2 32 -47q-2 -57 -28 -55h-96l-152 -4l-158 -4l-104 -4q-25 -4 -31 59zM1427 227 q2 43 31 47l96 -6l152 -2l149 4l97 4q28 -6 30 -47q-6 -57 -30 -55l-97 2h-149h-152l-98 -2q-23 0 -29 55zM1468 606q0 68 21.5 120t60.5 89q78 78 174 78q135 -2 205 -82q72 -75 72 -190q-6 -127 -90 -197q-88 -72 -209 -72q-100 0 -166 66q-33 35 -51.5 81t-16.5 107z M1622 610q-6 -195 111 -194q115 0 108 207v2v-2q0 205 -123 204q-90 12 -96 -217z" />
<glyph unicode="]" horiz-adv-x="1161" d="M139 -57q4 31 21 43l100 8l168 -8l123 -11q41 -8 41 72l-2 244l-2 364v2v-2l2 410l2 283q10 82 -37 69l-123 -8l-172 -6l-100 6q-20 20 -21 55q4 55 41 56l189 -15l219 8l143 9q104 6 100 -82l-6 -187q-2 -59 -4 -166.5t-2 -267.5q0 -186 2 -327.5t4 -245.5l6 -281 q8 -47 -13 -72.5t-70 -21.5l-138 6l-209 8l-118 -2l-113 -8q-31 8 -31 68z" />
<glyph unicode="^" horiz-adv-x="581" d="M135 356q4 59 45 111q43 51 117 53q72 -2 113 -53q43 -53 43 -111q0 -61 -43 -112q-41 -51 -113 -51t-117 51q-41 47 -45 112v2v-2zM135 1028q6 74 51 119q49 45 107 45q61 0 110 -45q49 -49 50 -117q0 -74 -52 -121q-45 -41 -106 -45q-63 0 -109 45q-45 45 -51 119z" />
<glyph unicode="_" horiz-adv-x="20" d="M-80 350q0 43 37 43h111q39 0 38 -43v2v-2q0 -72 -30 -61h-123q-33 -10 -33 61z" />
<glyph unicode="`" d="M0 0v2v-2z" />
<glyph unicode="a" horiz-adv-x="872" d="M131 659q-7 18 -7 31q0 30 36 37l110 2l68 4q78 12 92 70q16 37 31 45l53 8h5q71 0 77 -53l-29 -144q-10 -59 -18 -133.5t-8 -165.5v-81v-97q0 -70 10 -84l18 -24l101 -2l110 6q23 -2 23 -35q0 -53 -19 -66l-141 11l-188 6l-176 -6l-123 -11q-20 14 -21 66q0 31 23 35 l96 -6h84q14 2 27 24q14 20 14 86v76v84l8 182l19 156q-158 -62 -222 -62h-10q-27 -2 -43 41z" />
<glyph unicode="b" horiz-adv-x="872" d="M117 18q0 106 69 177l156 116q45 35 87 62.5t77 60.5q74 63 74 146v10q0 28 -10 54q-12 30 -31 52q-45 49 -136 49q-41 0 -90 -26q-43 -27 -45 -51q2 -23 37 -50q35 -29 41 -73q-4 -90 -104 -96q-49 0 -82 36q-31 41 -31 76q4 113 92 189q45 40 99 62q47 20 103 19h15 q78 0 136.5 -23.5t95.5 -64.5q73 -81 73 -153v-6q0 -115 -88 -174q-41 -29 -90 -54.5t-102 -48.5q-123 -47 -215 -133l82 12l231 -30q84 4 103 51q20 43 24 78q10 25 33 22q33 0 37 -28v2v-2q-47 -308 -202 -308h-11q-96 8 -174 72q-78 59 -119 70h-3q-48 0 -48 -64 q1 -10 1 -19q0 -56 -44 -61q-43 4 -41 49z" />
<glyph unicode="c" horiz-adv-x="872" d="M121 182q-2 94 100 105q94 -12 94 -80q-2 -43 -28 -66q-29 -18 -31 -39q12 -57 152 -69q86 4 132 49t48 137v9q0 37 -16 65q-18 31 -46 49q-28 16 -62 26q-24 8 -52 8q-10 0 -21 -1l-110 -13q-20 6 -21 48q0 31 25 36l110 -14q74 0 125 41q53 47 53 122v5 q-4 158 -166 158h-12l-88 -19q-41 -18 -45 -53q2 -20 33 -39q25 -16 29 -59q0 -72 -86 -78q-55 4 -78 35q-23 33 -23 65q6 104 94 162q91 55 188 55h7q162 0 236 -73q69 -66 69 -135v-9q-2 -88 -69 -137q-33 -23 -69 -38t-77 -23q104 -18 168 -62q68 -47 68 -137 q-2 -106 -97 -174q-90 -68 -227 -72q-127 0 -215 56q-92 53 -92 159z" />
<glyph unicode="d" horiz-adv-x="872" d="M78 276l170 216q51 66 74.5 146.5t27.5 176.5q12 29 105 39q27 3 47 3q48 0 55 -17q-8 -84 -135 -250q-63 -84 -123.5 -156t-120.5 -133h121l133 -2v129q2 41 53 98q35 37 66 47q33 12 33 -20v-254l159 4q20 2 21 -27q0 -45 -19 -51l-161 6v-53l4 -82q4 -16 16 -28l74 -2 l92 8q25 2 25 -31q0 -55 -19 -63l-108 8l-160 4l-172 -4l-121 -8q-14 8 -14 63q-2 27 20 31l105 -8q35 -3 56.5 -3t29.5 3q14 10 16 30l4 82v53l-201 -2l-135 -4q-22 4 -22 28q0 10 4 23z" />
<glyph unicode="e" horiz-adv-x="872" d="M106 149q0 92 95 103q98 -10 98 -86q-4 -39 -25 -51q-25 -16 -26 -35q10 -41 117 -43h10q76 0 127 59q57 59 59 178v12q0 163 -166 181q-145 -10 -153 -113q4 -20 -33 -16q-33 -4 -33 22v185l-8 184q-1 10 -1 18q1 47 19 73q20 28 55 28h5q92 -4 137 -51 q29 -29 58.5 -44.5t64.5 -17.5q63 0 112 103l48 4q33 -12 39 -29v2v-2q-4 -47 -91 -102q-45 -29 -102 -47q-51 -16 -114 -15h-15l-51 2l-47 4q-9 3 -16 3q-25 0 -23 -40l-2 -81v-68q72 67 169 67q10 0 21 -1q115 0 205 -68q41 -35 65 -81q23 -43 23 -96v-9 q0 -66 -27.5 -121.5t-78.5 -100.5q-104 -90 -238 -92q-59 0 -107.5 14.5t-87.5 38.5q-39 25 -60.5 55.5t-21.5 73.5z" />
<glyph unicode="f" horiz-adv-x="872" d="M115 377q0 133 36.5 223t98.5 139q61 49 114 71q49 19 93 19h8q47 -2 89 -13t77 -38q66 -51 71 -131q-6 -100 -98 -100q-72 0 -78 59q4 43 29 53q29 10 31 29q-6 61 -103 74q-127 -12 -170 -137q-20 -63 -31 -117q-7 -40 -7 -77q0 -14 1 -28q43 49 90 71q44 20 92 20h9 q57 -2 105.5 -18.5t86.5 -51.5q76 -67 80 -178q-6 -125 -94 -201q-90 -76 -209 -78q-47 0 -99 19.5t-106 62.5q-55 45 -87 126q-29 76 -29 188v14zM281 330q2 -158 51 -226q42 -63 101 -63h9q53 0 93 41q39 43 43 154v2v-2q0 78 -31 133q-35 53 -115 53q-78 0 -151 -92z" />
<glyph unicode="g" horiz-adv-x="872" d="M135 793q6 33 39 26q35 -4 39 -22q-7 -21 -7 -73q0 -20 1 -46q57 35 88 96q29 63 119 70q92 -8 139 -68q43 -59 100 -65q39 2 39 37v65q12 31 43 25q31 -4 33 -31v2v-2q-4 -123 -41 -197q-35 -72 -86 -139q-78 -96 -104 -170q-29 -78 -35 -172q-2 -76 -25 -125 q-18 -47 -82 -47q-92 8 -92 114v9v11q0 121 131 278l146 145q74 74 92 135l-62 -16l-61 -6l-205 26q-106 -8 -131 -65l-4 -60l-4 -94q-6 -25 -37 -24q-31 2 -31 20l2 180z" />
<glyph unicode="h" horiz-adv-x="872" d="M106 186q0 76 54 123l119 80q-78 43 -112 93q-30 45 -30 96v12q10 115 92 176q88 63 182 63h9q68 0 119 -17t90 -50q74 -66 78 -146q-4 -76 -45 -116q-39 -41 -99 -70q76 -35 127 -86q53 -53 53 -126v-5q0 -115 -102 -178q-47 -33 -103.5 -50.5t-121.5 -17.5 q-143 4 -226 68q-84 61 -84 151zM238 190q6 -74 59 -108q27 -18 57.5 -26.5t67.5 -10.5q59 0 113 29q49 28 53 100v7q0 45 -47 83q-49 37 -197 94q-98 -47 -106 -168zM287 635v-8q0 -48 43 -82q49 -43 170 -88q78 45 88 153q-16 144 -160 144h-2q-139 -14 -139 -119v2v-2z " />
<glyph unicode="i" horiz-adv-x="872" d="M111 549q2 125 94 201q88 76 209 79h9q97 0 198 -79q53 -41 85 -121q30 -75 29 -187v-14q0 -135 -36.5 -226t-102.5 -141q-122 -94 -215 -94h-8q-100 6 -164 49q-35 23 -52.5 54.5t-21.5 68.5q6 102 96 103q72 0 76 -58q0 -45 -26 -55q-27 -6 -31 -29q4 -57 102 -63 q133 10 180 137q41 123 41 213v8q-86 -92 -188 -92h-8q-115 2 -191 72q-75 65 -75 174zM268 557q-1 -12 -1 -23q0 -144 143 -157q82 0 159 92q-2 160 -49 225q-49 63 -112 64q-53 0 -95 -43q-41 -45 -45 -158v2v-2z" />
<glyph unicode="j" horiz-adv-x="872" d="M90 401q0 94 27.5 171t81.5 137q103 120 237 120h2q135 0 240 -120q104 -124 106 -308q-2 -182 -106 -307q-104 -127 -240 -127q-131 0 -239 127q-109 127 -109 307zM266 401q0 -117 15.5 -189.5t44.5 -105.5q52 -60 101 -60q6 0 11 1q4 -1 9 -1q49 0 102 60 q57 66 59 295v2v-2q-2 225 -59 295q-48 57 -96 57q-8 0 -15 -1q-6 1 -12 1q-49 0 -100 -57q-29 -33 -44.5 -105.5t-15.5 -189.5z" />
<glyph unicode="k" horiz-adv-x="872" d="M43 350q0 43 32 43h3l192 -2l172 2l176 -2l177 2h5q31 0 31 -43q0 -62 -21 -62q-3 0 -7 1h-731q-3 -1 -6 -1q-23 0 -23 62zM100 1251q-8 19 -8 32q0 29 35 38l111 2l67 2q78 12 92 70l31 45l53 8h5q71 0 77 -53l-26 -144q-12 -59 -20.5 -134t-8.5 -165v-82v-96 q0 -63 10 -84l21 -24l100 -2l109 6q23 -3 23 -26q0 -4 -1 -9v2v-2q0 -53 -18 -66l-140 11l-190 6l-176 -6l-121 -11q-20 12 -21 66q0 33 23 35l94 -6h84l27 24l14 86v76v84l10 182l19 156q-162 -62 -224 -62h-10h-5q-25 0 -36 41z" />
<glyph unicode="l" horiz-adv-x="872" d="M43 350q0 43 32 43h3l192 -2l172 2l176 -2l177 2h6q31 0 30 -43v2v-2q0 -62 -21 -62q-3 0 -7 1h-731q-3 -1 -6 -1q-23 0 -23 62zM117 610q0 106 69 176l156 117q45 35 87 62.5t77 60.5q74 63 74 145v10q0 29 -10 55q-12 30 -31 52q-45 49 -136 49q-41 0 -90 -26 q-43 -27 -45 -51q2 -23 37 -50q35 -29 41 -73q-4 -90 -104 -97q-49 0 -82 37q-31 41 -31 76q4 113 92 188q45 41 99 63q49 20 107 19h11q78 0 136.5 -23.5t95.5 -64.5q73 -81 73 -153v-6q0 -115 -88 -175q-41 -29 -90 -54t-102 -48q-123 -47 -215 -133l82 12l231 -30 q84 6 103 51q20 43 24 78q10 25 33 22q33 0 37 -29q-47 -307 -201 -307h-12q-96 8 -174 72q-78 59 -119 70h-3q-48 0 -48 -64q1 -10 1 -19q0 -56 -44 -61q-43 4 -41 49z" />
<glyph unicode="m" horiz-adv-x="872" d="M43 350q0 43 32 43h3l192 -2l172 2l176 -2l177 2h6q31 0 30 -43v2v-2q0 -62 -21 -62q-3 0 -7 1h-731q-3 -1 -6 -1q-23 0 -23 62zM121 776q-2 94 100 105q94 -12 94 -80q-2 -45 -28 -64q-27 -18 -31 -41q12 -57 152 -69q176 6 180 188v9q0 37 -16 65q-18 31 -46 47t-62 26 q-24 8 -52 8q-10 0 -21 -1l-110 -13q-20 6 -21 48q0 31 25 36l110 -14q72 0 125 43q53 45 53 120v5q-4 158 -166 158h-12l-88 -19q-41 -16 -45 -53q2 -16 33 -37q25 -16 29 -61q0 -72 -86 -78q-55 4 -78 35q-23 33 -23 65q6 104 94 162q91 57 188 57h7q162 -4 236 -75 q69 -67 69 -138v-6q-2 -88 -69 -137q-33 -23 -69 -38t-77 -23q100 -18 168 -62q68 -45 68 -135q-2 -109 -97 -176q-88 -66 -227 -70q-129 0 -215 53q-92 53 -92 160z" />
<glyph unicode="n" horiz-adv-x="872" d="M43 350q0 43 32 43h3l192 -2l172 2l176 -2l177 2h6q31 0 30 -43v2v-2q0 -62 -21 -62q-3 0 -7 1h-731q-3 -1 -6 -1q-23 0 -23 62zM70 868q41 41 82 95.5t88 119.5q92 129 102 324q12 29 104 39q24 2 43 2q51 0 62 -16q-12 -86 -137 -250q-125 -166 -244 -287h123l131 -2 v127q2 41 53 98l66 47q33 12 32 -20v-252l160 4q20 0 21 -29q0 -45 -19 -51l-162 6v-53l5 -82q4 -16 16 -29l74 -2l92 9q24 2 24 -31q0 -51 -18 -64l-109 9l-159 4l-172 -4l-119 -9q-16 10 -16 64q0 31 20 31l104 -9q35 -2 56.5 -3t29.5 3q14 10 17 31l4 82v53l-201 -2 l-135 -4q-22 4 -22 28q0 10 4 23z" />
<glyph unicode="o" horiz-adv-x="872" d="M43 350q0 43 32 43h3l192 -2l172 2l176 -2l177 2h6q31 0 30 -43v2v-2q0 -62 -21 -62q-3 0 -7 1h-731q-3 -1 -6 -1q-23 0 -23 62zM106 739v7q0 91 95 102q98 -10 98 -88q-4 -39 -25 -51q-23 -14 -26 -37q10 -41 117 -43h5q77 0 132 61q57 63 59 182v12q0 165 -166 183 q-143 -8 -153 -115q2 -18 -33 -18q-33 0 -33 24v183l-8 182q-1 9 -1 18q1 46 19 71q20 28 55 28h5q92 -4 137 -51q29 -29 58.5 -44.5t64.5 -17.5q63 0 112 103l48 4q31 -13 39 -27q-2 -49 -91 -104q-45 -29 -102 -47q-51 -16 -114 -15h-15l-51 2l-47 4q-10 3 -17 3 q-23 0 -22 -30v-8l-2 -77v-68q72 69 169 69q10 0 21 -1q115 0 205 -68q43 -35 67 -82q22 -43 21 -97v-9q0 -70 -27.5 -125.5t-78.5 -100.5q-106 -92 -238 -94q-59 0 -107.5 14.5t-87.5 38.5q-82 51 -82 127z" />
<glyph unicode="p" horiz-adv-x="872" d="M43 350q0 43 32 43h3l192 -2l172 2l176 -2l177 2h6q31 0 30 -43v2v-2q0 -62 -21 -62q-3 0 -7 1h-731q-3 -1 -6 -1q-23 0 -23 62zM106 969q0 133 37 224t99 138q61 49 114 71q49 19 93 19h8q47 -2 89 -13t77 -38q70 -53 71 -131q-4 -100 -98 -100q-72 0 -78 59q4 45 31 53 q27 10 29 29q-6 61 -103 74q-127 -12 -170 -137q-37 -119 -37 -212v-10q79 90 178 90h13q57 -2 105 -18t87 -51q76 -67 80 -178q-6 -125 -92 -199q-88 -74 -211 -80q-47 0 -99.5 19.5t-105.5 62.5q-53 45 -86 126q-31 76 -31 188v14zM272 922q2 -158 52 -226q45 -63 105 -63 h5q53 0 92 41q39 42 43 153q0 78 -30 134q-35 53 -115 53q-78 0 -152 -92z" />
<glyph unicode="q" horiz-adv-x="872" d="M43 350q0 43 32 43h3l192 -2l172 2l176 -2l177 2h6q31 0 30 -43v2v-2q0 -62 -21 -62q-3 0 -7 1h-731q-3 -1 -6 -1q-23 0 -23 62zM127 1386q2 33 37 27q35 -4 41 -22q-9 -20 -9 -77q0 -19 1 -42q55 33 88 96q29 63 118 70q92 -6 140 -66q43 -57 100 -67q39 2 39 38v66 q14 31 43 25q29 -4 33 -33q-4 -123 -39 -197l-88 -137q-35 -51 -62.5 -92t-42.5 -78q-29 -80 -34 -172q-2 -76 -23 -125q-21 -48 -72 -48q-6 0 -12 1q-90 4 -90 108v13v15q0 55 25 121q28 75 104 153l145 147q74 74 93 135l-62 -18l-61 -6l-205 28q-109 -12 -129 -67l-6 -60 l-4 -94q-10 -25 -37 -24q-31 4 -29 20v180z" />
<glyph unicode="r" horiz-adv-x="872" d="M43 350q0 43 32 43h3l192 -2l172 2l176 -2l177 2h6q31 0 30 -43v2v-2q0 -62 -21 -62q-3 0 -7 1h-731q-3 -1 -6 -1q-23 0 -23 62zM106 778q0 76 54 123l119 80q-78 43 -112 93q-30 45 -30 96v12q10 115 92 176q88 63 182 63h9q68 0 119 -17.5t90 -49.5q76 -66 78 -146 q-4 -76 -45 -116q-39 -41 -99 -70q76 -35 127 -86q53 -53 53 -126v-5q0 -115 -102 -178q-47 -33 -103.5 -50.5t-121.5 -17.5q-143 4 -226 68q-84 61 -84 151zM238 782q6 -74 59 -108q53 -35 125 -35h7q53 0 106 27q51 30 53 100v7q0 45 -47 83q-49 37 -197 94 q-96 -43 -106 -168zM287 1227q-2 -51 43 -90q25 -20 66.5 -43t103.5 -45q78 45 88 153q-16 144 -160 144h-2q-139 -15 -139 -119z" />
<glyph unicode="s" horiz-adv-x="872" d="M43 350q0 43 32 43h3l192 -2l172 2l176 -2l177 2h6q31 0 30 -43v2v-2q0 -62 -21 -62q-3 0 -7 1h-731q-3 -1 -6 -1q-23 0 -23 62zM119 1141q2 125 94 200q88 76 209 80h13q91 0 194 -80q53 -41 85 -121q30 -75 29 -186v-14q0 -135 -37.5 -226.5t-101.5 -140.5 q-122 -94 -215 -94h-8q-102 6 -166 49q-66 45 -72 123q6 102 97 103q72 0 75 -58q0 -47 -26 -53q-27 -8 -31 -31q4 -57 102 -63q135 12 181 137q41 123 41 213v8q-86 -92 -197 -92q-119 6 -190 72q-76 65 -76 174zM276 1151q-1 -12 -1 -23q0 -146 143 -159q84 0 160 94 q-2 158 -50 223q-49 63 -112 64q-53 0 -94 -43q-42 -45 -46 -156z" />
<glyph unicode="t" horiz-adv-x="872" d="M43 350q0 43 32 43h3l192 -2l172 2l176 -2l177 2h6q31 0 30 -43v2v-2q0 -62 -21 -62q-3 0 -7 1h-731q-3 -1 -6 -1q-23 0 -23 62zM90 993q0 94 27.5 171t81.5 136q104 121 239 121t240 -121q104 -123 106 -307q-2 -182 -106 -307q-104 -127 -240 -127q-68 0 -127 33 t-112 94q-109 127 -109 307zM266 993q0 -117 15.5 -189.5t44.5 -105.5q50 -58 99 -58q7 0 13 1q7 -1 14 -1q47 0 97 58q57 66 59 295q-2 229 -59 295q-47 57 -95 57q-8 0 -16 -2q-6 1 -12 1q-49 0 -100 -56q-29 -33 -44.5 -105.5t-15.5 -189.5z" />
<glyph unicode="u" d="M0 0v2v-2z" />
<glyph unicode="v" d="M0 0v2v-2z" />
<glyph unicode="w" d="M0 0v2v-2z" />
<glyph unicode="x" d="M0 0v2v-2z" />
<glyph unicode="y" d="M0 0v2v-2z" />
<glyph unicode="z" d="M0 0v2v-2z" />
<glyph unicode="{" horiz-adv-x="1161" d="M242 698q0 55 34 64l58 -10l69 -13q152 12 162 164q-6 88 -49 162q-47 74 -49 180v2v-2q-2 113 84 199q90 90 264 92q84 2 150.5 -17.5t119.5 -54.5q16 -16 7 -45q-10 -29 -43 -18l-136 24q-182 -6 -188 -190l29 -266q-2 -197 -267 -267q270 -74 273 -274q0 -37 -5 -70.5 t-16 -62.5q-10 -31 -15 -63.5t-3 -69.5q4 -190 192 -195q47 0 82 8.5t60 20.5q47 4 51 -45l-12 -23q-111 -70 -279 -67q-180 4 -266 90q-92 86 -86 199q2 109 51 188q47 80 53 170q-6 137 -164 145l-131 -18q-31 6 -30 63z" />
<glyph unicode="|" horiz-adv-x="581" d="M229 -209l7 201l4 264v2v-2v881l-4 266l-7 199q6 27 70 26q47 0 51 -31l-8 -194l-2 -266v-881l2 -242l8 -211q-2 -37 -69 -39q-45 -2 -52 27z" />
<glyph unicode="}" horiz-adv-x="1161" d="M43 -41q0 37 37 35l145 -27q182 8 189 195l-15 129l-12 133q4 199 272 266q-268 59 -274 279l31 266q-2 186 -183 197q-90 -10 -135 -31q-53 -6 -55 35l18 30q100 70 248 70q184 0 277 -86q88 -82 88 -205v2v-2q-6 -109 -49 -184q-45 -80 -52 -170q12 -133 162 -152 l72 13l55 10q39 -12 35 -76q0 -51 -31 -51l-131 18q-154 -12 -160 -168q6 -86 50 -159q43 -78 45 -185q4 -109 -84 -192q-84 -88 -262 -88q-86 0 -150.5 16.5t-114.5 44.5q-18 10 -16 37z" />
<glyph unicode="~" d="M0 0v2v-2z" />
<glyph d="M0 0v2v-2z" />
<glyph unicode="&#x85;" d="M0 0v2v-2z" />
<glyph unicode="&#xa0;" horiz-adv-x="1161" d="M0 0v2v-2z" />
<glyph unicode="&#xa1;" d="M0 0v2v-2z" />
<glyph unicode="&#xa2;" horiz-adv-x="1161" d="M203 682q0 229 123 365q119 127 299 149l18 203q0 23 43 20q66 0 59 -35l-30 -186q125 -18 203 -98q80 -80 79 -182q4 -156 -137 -164q-45 -2 -88 26q-39 27 -45 84q10 63 53 90q45 27 51 60q0 70 -131 82l-14 -113l-80 -588l-8 -61q43 -23 94 -25q63 0 121 35 q58 33 70 125q2 39 45 37q53 -4 55 -41q2 -86 -78 -176q-78 -90 -254 -96l-69 4l-17 -203q0 -25 -51 -25q-57 0 -53 39l35 211q-123 47 -205 158q-43 57 -66.5 133t-21.5 172zM432 672q4 -170 90 -279l2 17v2v-2l76 583l10 92q-96 -37 -139 -153q-20 -57 -30.5 -122 t-8.5 -138z" />
<glyph unicode="&#xa3;" horiz-adv-x="1161" d="M104 639q-6 45 27 49l139 -10v2v-2l-67 156q-18 41 -24.5 87t-8.5 97q-2 135 113 266q57 66 144 101.5t208 37.5q154 2 274 -92q121 -92 123 -254q0 -66 -43 -121q-41 -55 -115 -59q-70 0 -110 51q-39 49 -39 115q6 68 49 104q43 41 49 72q-2 37 -53 59q-55 23 -117 23 q-106 -2 -176 -76q-31 -35 -48 -76t-17 -92q2 -106 34 -203q33 -100 48 -196l256 10q29 -2 28 -65q0 -47 -28 -48l-256 9q-6 -137 -111 -322q59 37 129 35l143 -27l154 -26q115 10 127 80l6 114q10 43 49 41q43 0 51 -35q6 -240 -67 -360q-78 -121 -187 -121 q-143 14 -229 119q-82 100 -162 119q-33 -10 -62.5 -35t-51.5 -72l-45 -88q-18 -39 -41 -45q-63 6 -78 57q0 20 33 54l61 69q61 88 88 164q27 72 27 160q0 63 -21 119l-155 -9q-41 0 -48 64z" />
<glyph unicode="&#xa4;" d="M20 592q0 49 29 49l90 -4q-2 16 -2 30.5v30.5l2 66l-90 -6q-14 -2 -21.5 15.5t-7.5 47.5q0 45 29 49l98 -6v2v-2q29 221 150 385q59 84 148.5 128t211.5 46q137 2 254 -92q57 -45 88 -107.5t33 -146.5q0 -68 -45 -121q-41 -57 -117 -59q-72 0 -112 51q-37 45 -37 115 q6 70 47 104q43 41 49 72q-12 82 -149 82q-145 -2 -211 -135q-66 -127 -76 -324l178 2l119 6q29 -4 29 -65q0 -47 -29 -47l-121 6l-180 2v-133l180 2l121 6q29 0 29 -66q0 -49 -29 -45l-119 7l-178 2q4 -109 24.5 -193t53.5 -145q66 -129 207 -129q135 0 151 78 q-6 37 -49 73q-41 37 -47 107q0 68 37 116q37 47 112 48q72 0 117 -58q23 -29 35 -58.5t10 -64.5q-6 -164 -123 -256q-57 -45 -119.5 -68.5t-134.5 -21.5q-246 6 -362 176q-117 166 -146 394l-98 -7q-29 -4 -29 62z" />
<glyph unicode="&#xa5;" horiz-adv-x="1161" d="M27 1333q0 61 24 68l244 -10l178 6l62 4q29 -6 26 -68q0 -45 -35 -47l-59 2q-29 -2 -33 -33q8 -59 41 -153l51 -139l92 -261l11 -38h2l8 38l47 134l27 71l69 207q18 53 26.5 90t8.5 53q0 29 -57 29h-45q-37 0 -37 47q0 63 29 68l215 -10l182 10q29 -4 29 -68 q0 -45 -37 -47l-115 -14q-23 -16 -67 -105.5t-103 -255.5l-59 -159l219 8q27 -2 26 -66q0 -47 -26 -47l-248 8l-8 -20q-18 -47 -19 -86v-23l275 11q27 -2 26 -68q0 -45 -26 -45l-275 8v-143q0 -102 9 -135q6 -33 20 -43l74 -11l100 6q37 -6 37 -51q0 -63 -29 -63l-327 8 q-123 4 -204 0t-122 -8q-29 0 -29 63q0 45 35 51l102 -6l72 11q14 10 23 43l10 135v143l-277 -8v2v-2q-31 0 -30 61q0 47 30 52l271 -11l-10 41l-37 88l-224 -8q-31 0 -30 66q0 43 30 47l193 -8l-133 350q-25 68 -44.5 107.5t-31.5 54.5q-27 31 -43 24l-70 -2q-35 0 -34 47z " />
<glyph unicode="&#xa7;" d="M0 0v2v-2z" />
<glyph unicode="&#xa8;" d="M0 0v2v-2z" />
<glyph unicode="&#xa9;" d="M0 0v2v-2z" />
<glyph unicode="&#xaa;" d="M0 0v2v-2z" />
<glyph unicode="&#xab;" d="M0 0v2v-2z" />
<glyph unicode="&#xac;" horiz-adv-x="1161" d="M113 711q0 55 30 61l136 -4l194 -6l119 -2l215 4l211 8q37 -6 37 -61v2v-2q0 -92 -29 -88l-178 8l-256 2l-266 -2l-189 -8q-25 -2 -24 88z" />
<glyph unicode="&#xad;" horiz-adv-x="1161" d="M0 0v2v-2z" />
<glyph unicode="&#xae;" d="M0 0v2v-2z" />
<glyph unicode="&#xaf;" d="M0 0v2v-2z" />
<glyph unicode="&#xb0;" horiz-adv-x="1161" d="M211 1038q0 154 102 269q51 55 117 85.5t150 30.5t150.5 -30.5t117.5 -85.5q102 -115 104 -269q-2 -156 -104 -266q-51 -55 -117.5 -86t-150.5 -31t-149.5 31t-117.5 86q-102 113 -102 266zM330 1038q0 -57 17.5 -103t49.5 -87q70 -82 183 -82q115 0 184 82q33 41 50 87 t17 103v2v-2q0 113 -67 193q-68 84 -184 84q-59 0 -103.5 -21.5t-79.5 -62.5q-68 -84 -67 -193z" />
<glyph unicode="&#xb1;" horiz-adv-x="1161" d="M176 920q2 84 39 71l117 -6l192 -4l-4 182l-8 137q11 37 70 33q90 0 71 -35l-6 -129l-4 -188l133 4l191 8q27 2 26 -61q2 -86 -35 -76l-137 6l-178 4v-2l10 -311q-12 -47 -71 -41q-78 0 -68 37l10 317l-219 -4l-104 -6q-35 10 -25 64zM186 264q0 88 33 70l420 -8l309 8 q43 -8 37 -70q4 -80 -33 -67l-258 8l-215 4l-164 -6l-98 -6q-35 6 -31 67v2v-2z" />
<glyph unicode="&#xb4;" d="M0 0v2v-2z" />
<glyph unicode="&#xb6;" d="M0 0v2v-2z" />
<glyph unicode="&#xb7;" horiz-adv-x="581" d="M135 721q2 68 47 121q45 55 119 55q57 2 102 -43q43 -41 48 -115v2v-2q-4 -76 -48 -118q-45 -49 -114 -54q-135 14 -154 154z" />
<glyph unicode="&#xb8;" d="M0 0v2v-2z" />
<glyph unicode="&#xba;" d="M0 0v2v-2z" />
<glyph unicode="&#xbb;" d="M0 0v2v-2z" />
<glyph unicode="&#xbf;" d="M0 0v2v-2z" />
<glyph unicode="&#xc0;" d="M0 0v2v-2z" />
<glyph unicode="&#xc1;" d="M0 0v2v-2z" />
<glyph unicode="&#xc2;" d="M0 0v2v-2z" />
<glyph unicode="&#xc3;" d="M0 0v2v-2z" />
<glyph unicode="&#xc4;" d="M0 0v2v-2z" />
<glyph unicode="&#xc5;" d="M0 0v2v-2z" />
<glyph unicode="&#xc6;" d="M0 0v2v-2z" />
<glyph unicode="&#xc7;" d="M0 0v2v-2z" />
<glyph unicode="&#xc8;" d="M0 0v2v-2z" />
<glyph unicode="&#xc9;" d="M0 0v2v-2z" />
<glyph unicode="&#xca;" d="M0 0v2v-2z" />
<glyph unicode="&#xcb;" d="M0 0v2v-2z" />
<glyph unicode="&#xcc;" d="M0 0v2v-2z" />
<glyph unicode="&#xcd;" d="M0 0v2v-2z" />
<glyph unicode="&#xce;" d="M0 0v2v-2z" />
<glyph unicode="&#xcf;" d="M0 0v2v-2z" />
<glyph unicode="&#xd1;" d="M0 0v2v-2z" />
<glyph unicode="&#xd2;" d="M0 0v2v-2z" />
<glyph unicode="&#xd3;" d="M0 0v2v-2z" />
<glyph unicode="&#xd4;" d="M0 0v2v-2z" />
<glyph unicode="&#xd5;" d="M0 0v2v-2z" />
<glyph unicode="&#xd6;" d="M0 0v2v-2z" />
<glyph unicode="&#xd8;" d="M0 0v2v-2z" />
<glyph unicode="&#xd9;" d="M0 0v2v-2z" />
<glyph unicode="&#xda;" d="M0 0v2v-2z" />
<glyph unicode="&#xdb;" horiz-adv-x="1159" d="M25 592q0 45 26 47l90 -6l-2 65l2 68l-90 -6q-27 -2 -26 59q0 47 26 49l99 -6v2v-2q27 221 147 387q119 170 360 172q72 2 134.5 -21.5t117.5 -68.5q117 -90 119 -254q2 -35 -9 -63.5t-34 -57.5q-43 -59 -115 -61q-72 0 -110 51q-37 49 -37 117q2 68 47 104q43 39 49 74 q-12 82 -151 82q-147 -2 -213 -135q-66 -129 -76 -328l180 2l119 6q31 -4 31 -63q0 -45 -31 -45l-121 6l-182 2v-137l182 2l121 6q31 0 31 -66q0 -47 -31 -43l-119 7l-180 2q8 -211 78 -340q66 -129 209 -129q137 0 153 80q-6 35 -49 71q-43 41 -47 109q0 68 37 116 q37 45 110 50q74 -2 115 -60q45 -59 43 -125q-4 -164 -119 -254q-115 -92 -254 -90q-242 6 -360 176q-121 170 -145 394l-99 -7q-27 -2 -26 62z" />
<glyph unicode="&#xdc;" d="M0 0v2v-2z" />
<glyph unicode="&#xdf;" d="M0 0v2v-2z" />
<glyph unicode="&#xe0;" d="M0 0v2v-2z" />
<glyph unicode="&#xe1;" d="M0 0v2v-2z" />
<glyph unicode="&#xe2;" d="M0 0v2v-2z" />
<glyph unicode="&#xe3;" d="M0 0v2v-2z" />
<glyph unicode="&#xe4;" d="M0 0v2v-2z" />
<glyph unicode="&#xe5;" d="M0 0v2v-2z" />
<glyph unicode="&#xe6;" d="M0 0v2v-2z" />
<glyph unicode="&#xe7;" d="M0 0v2v-2z" />
<glyph unicode="&#xe8;" d="M0 0v2v-2z" />
<glyph unicode="&#xe9;" d="M0 0v2v-2z" />
<glyph unicode="&#xea;" d="M0 0v2v-2z" />
<glyph unicode="&#xeb;" d="M0 0v2v-2z" />
<glyph unicode="&#xec;" d="M0 0v2v-2z" />
<glyph unicode="&#xed;" d="M0 0v2v-2z" />
<glyph unicode="&#xee;" d="M0 0v2v-2z" />
<glyph unicode="&#xef;" d="M0 0v2v-2z" />
<glyph unicode="&#xf1;" d="M0 0v2v-2z" />
<glyph unicode="&#xf2;" d="M0 0v2v-2z" />
<glyph unicode="&#xf3;" d="M0 0v2v-2z" />
<glyph unicode="&#xf4;" d="M0 0v2v-2z" />
<glyph unicode="&#xf5;" d="M0 0v2v-2z" />
<glyph unicode="&#xf6;" d="M0 0v2v-2z" />
<glyph unicode="&#xf7;" horiz-adv-x="1161" d="M96 694q-2 61 29 76l215 -6l311 -2l219 4l164 8q27 -2 29 -88q0 -55 -33 -61l-123 4l-172 4l-102 2v2v-2h-262l-244 -12q-27 -8 -31 71zM449 1085q0 53 38 99q43 47 103 47q59 0 100 -47q37 -43 37 -99q0 -53 -37 -98q-18 -23 -42.5 -35t-57.5 -12q-59 0 -103 47 q-38 49 -38 98zM451 313q0 55 36 99q37 47 103 47q33 0 58.5 -12.5t43.5 -34.5q37 -44 37 -99q0 -53 -37 -98q-43 -47 -102 -47q-61 0 -103 47q-16 23 -26 47.5t-10 50.5z" />
<glyph unicode="&#xf8;" d="M0 0v2v-2z" />
<glyph unicode="&#xf9;" d="M0 0v2v-2z" />
<glyph unicode="&#xfa;" d="M0 0v2v-2z" />
<glyph unicode="&#xfb;" d="M0 0v2v-2z" />
<glyph unicode="&#xfc;" d="M0 0v2v-2z" />
<glyph unicode="&#xff;" d="M0 0v2v-2z" />
<glyph unicode="&#x2000;" horiz-adv-x="819" />
<glyph unicode="&#x2001;" horiz-adv-x="1638" />
<glyph unicode="&#x2002;" horiz-adv-x="819" />
<glyph unicode="&#x2003;" horiz-adv-x="1638" />
<glyph unicode="&#x2004;" horiz-adv-x="546" />
<glyph unicode="&#x2005;" horiz-adv-x="409" />
<glyph unicode="&#x2006;" horiz-adv-x="273" />
<glyph unicode="&#x2007;" horiz-adv-x="273" />
<glyph unicode="&#x2008;" horiz-adv-x="204" />
<glyph unicode="&#x2009;" horiz-adv-x="327" />
<glyph unicode="&#x200a;" horiz-adv-x="91" />
<glyph unicode="&#x2010;" horiz-adv-x="1161" d="M205 721q-4 86 24 90l289 -10v2v-2l225 4l177 6q39 2 38 -57q0 -84 -28 -90l-289 8l-233 -2l-166 -6q-37 2 -37 57z" />
<glyph unicode="&#x2011;" horiz-adv-x="1161" d="M205 721q-4 86 24 90l289 -10v2v-2l225 4l177 6q39 2 38 -57q0 -84 -28 -90l-289 8l-233 -2l-166 -6q-37 2 -37 57z" />
<glyph unicode="&#x2012;" horiz-adv-x="1161" d="M205 721q-4 86 24 90l289 -10v2v-2l225 4l177 6q39 2 38 -57q0 -84 -28 -90l-289 8l-233 -2l-166 -6q-37 2 -37 57z" />
<glyph unicode="&#x2013;" horiz-adv-x="1429" d="M205 721q-6 86 32 90l393 -10v2v-2l306 4l240 6q53 2 52 -57q0 -84 -38 -90l-393 8l-316 -2l-226 -6q-50 2 -50 57z" />
<glyph unicode="&#x2014;" horiz-adv-x="2453" d="M205 721q-11 86 66 90l785 -10v2v-2l612 4l481 6q106 2 103 -57q0 -84 -76 -90l-786 8l-633 -2l-451 -6q-101 2 -101 57z" />
<glyph unicode="&#x202f;" horiz-adv-x="327" />
<glyph unicode="&#x205f;" horiz-adv-x="409" />
<glyph unicode="&#xe000;" d="M0 0z" />
</font>
</defs>
</svg>
